<?xml version="1.0" encoding="utf-8"?>
<!-- Generator: Adobe Illustrator 19.2.1, SVG Export Plug-In . SVG Version: 6.00 Build 0)  -->
<svg version="1.1" id="Layer_1" xmlns="http://www.w3.org/2000/svg" xmlns:xlink="http://www.w3.org/1999/xlink" x="0px" y="0px"
	 viewBox="0 0 501.9 455.9" style="enable-background:new 0 0 501.9 455.9;" xml:space="preserve">
<style type="text/css">
	.st0{fill-rule:evenodd;clip-rule:evenodd;fill:#FFFFFF;stroke:#979797;stroke-width:0.1;stroke-miterlimit:10;}
	.st1{display:none;fill:#404040;}
	.st2{display:none;fill:#808080;}
	.st3{display:none;fill:#DFDFDF;}
	.st4{display:none;}
	.st5{clip-path:url(#SVGID_2_);}
	.st6{fill-rule:evenodd;clip-rule:evenodd;fill:none;stroke:#979797;stroke-miterlimit:10;}
	.st7{fill:none;}
	.st8{fill:#979797;}
	.st9{fill:#333333;}
	
		.st10{fill-rule:evenodd;clip-rule:evenodd;fill:none;stroke:#979797;stroke-width:5;stroke-linecap:round;stroke-linejoin:round;stroke-miterlimit:10;}
</style>
<path class="st10" d="M381.5,251c1.3-11.6-7.4-21.5-18.6-22.2c29.8-3.3,16.8-50.6-10.6-38c-0.1-0.1-0.1-0.1-0.2-0.2
	c23.6-14.9-3.1-50.5-24-31.8c8.7-22.9-25.4-38-36.5-16.2c0-22-31.9-27.2-38.9-6.4c-7-19.4-36.4-15.9-38.7,4.7
	c-15.1-18.2-44.5,2-32.8,22.6c-18-18.2-46.5,9.5-28.6,28c-23.4-7.3-36.4,27.7-13.9,37.5c-25.2,1-24.6,40,0.8,40v0
	c23.1,0,90.6-0.3,101.2,0c17,0.5,25.3,12.7,25.3,28.6c0,11.8,0,23.6,0,35.4h24c0-16.2,8.7-28.6,25.9-29.2c8.7-0.3,17.5,0,26.3,0l0,0
	c19.3,0.4,27.8-25.2,11.9-36.4C366.3,272.1,380.1,263.9,381.5,251z"/>
</svg>
