<?xml version="1.0" encoding="utf-8"?>
<!-- Generator: Adobe Illustrator 19.2.1, SVG Export Plug-In . SVG Version: 6.00 Build 0)  -->
<svg version="1.1" id="Layer_1" xmlns="http://www.w3.org/2000/svg" xmlns:xlink="http://www.w3.org/1999/xlink" x="0px" y="0px"
	 viewBox="0 0 501.9 455.9" style="enable-background:new 0 0 501.9 455.9;" xml:space="preserve">
<style type="text/css">
	.st0{fill:none;stroke:#979797;stroke-width:3;stroke-miterlimit:10;}
</style>
<path class="st0" d="M362.9-246.2c24.6,0,20.1-50.5-10.8-38.2c23.6-14.9-3.1-50.5-24-31.8c8.7-22.9-25.4-38-36.5-16.2
	c0-22-31.9-27.2-38.9-6.4c-7-19.4-36.4-15.9-38.7,4.7c-15.1-18.2-44.5,2-32.8,22.6c-18-18.2-46.5,9.5-28.6,28
	c-23.4-7.3-36.4,27.7-13.9,37.5c-25.2,1-24.6,40,0.8,40c23.1,0,90.6-0.3,101.2,0c17,0.5,25.3,12.7,25.3,28.6c0,11.8,0,23.6,0,35.4
	h24c0-16.2,8.7-28.6,25.9-29.2c8.7-0.3,17.5,0,26.3,0c19.3,0.4,23.5-24.8,11.9-36.4C393-206.7,383.3-246.2,362.9-246.2z"/>
<path class="st0" d="M364.5,228.7c22.6-2.1,18-49.3-11.5-38.4c-0.1,0-0.2-0.1-0.1-0.2c22.2-15.1-3.9-49.6-24.5-31.5
	c-0.1,0.1-0.2,0-0.1-0.1c8.3-22.6-25.3-37.5-36.5-16.2c0,0.1-0.1,0-0.1,0c-0.3-21.7-31.7-26.8-38.8-6.3c0,0.1-0.1,0.1-0.1,0
	c-7.1-19.1-36.2-15.6-38.6,4.7c0,0.1-0.1,0.1-0.1,0c-15-17.8-44,1.9-32.9,22.3c0,0.1,0,0.1-0.1,0.1c-18-17.5-45.8,9.8-28.4,28.1
	c0.1,0.1,0,0.1-0.1,0.1c-23.2-6.9-36,27.6-13.8,37.5c0,0,0,0.1,0,0.1c-25,1.2-24.3,40,1,40c23.1,0,90.6-0.3,101.2,0
	c17,0.5,25.3,12.7,25.3,28.6c0,11.8,0,23.6,0,35.4h24c0-16.2,8.7-28.6,25.9-29.2c8.7-0.3,17.5,0,26.3,0c19.2,0.4,23.4-24.6,12-36.3
	c-0.1-0.1,0-0.1,0.1-0.1c37.7,0.7,29.4-36.6,10.2-38.5C364.4,228.9,364.4,228.7,364.5,228.7z"/>
<path class="st0" d="M888.8-246.5c20.6-3.7,16.2-46.8-10.9-38.9c-0.9,0.3-1.2-0.1-0.5-0.7c19.1-15.4-5.3-47.1-25.3-31
	c-0.3,0.3-0.6-0.1-0.5-0.6c6.5-21.4-24.3-35.2-36-16.5c-0.3,0.6-1,0.5-1.1-0.1c-1.7-19.9-30.4-24.5-38.2-6.2c-0.2,0.5-1,0.5-1.3,0
	c-7.8-17.1-34.5-13.8-37.8,4.9c-0.1,0.5-1.1,0.5-1.5,0c-14.8-15-40.6,2.4-32.8,21.5c0.3,0.8,0.4,1.8,0,1.4
	c-17.4-15.3-43,9.2-29.1,27.2c0.5,0.6,0.6,1.6,0.1,1.5c-21.7-5.1-33.6,26.4-14.1,37c0.3,0.2,0.4,0.4,0.4,0.6s-0.1,0.4-0.5,0.4
	c-23.3,2.8-22.1,39.9,2.7,39.9c23.1,0,90.6-0.3,101.2,0c17,0.5,25.3,12.7,25.3,28.6c0,11.8,0,23.6,0,35.4h24
	c0-16.2,8.7-28.6,25.9-29.2c8.7-0.3,17.5,0,26.3,0c18.4,0.4,23-22.5,13.4-34.7c-0.5-0.6-0.4-1.7,0.2-1.7c35.1-0.3,28-34.9,10-38.3
	C887.9-246.1,887.9-246.3,888.8-246.5z"/>
</svg>
