<?xml version="1.0" encoding="utf-8"?>
<!-- Generator: Adobe Illustrator 19.1.0, SVG Export Plug-In . SVG Version: 6.00 Build 0)  -->
<svg version="1.1" xmlns="http://www.w3.org/2000/svg" xmlns:xlink="http://www.w3.org/1999/xlink" x="0px" y="0px"
	 viewBox="0 0 108.3 106" style="enable-background:new 0 0 108.3 106;" xml:space="preserve">
<style type="text/css">
	.st0{fill:#1A1A1A;}
	.st1{fill:#79C0F2;}
	.st2{fill:#434C59;}
	.st3{fill:#F2F6F7;}
	.st4{fill:#FFFFFF;}
	.st5{fill:#3C5A99;}
	.st6{fill:#6AB6EA;}
	.st7{fill:#002F4B;}
</style>
<g id="Layer_1">
	<g>
		<g>
			<path class="st3" d="M89.4,46.1L57.2,77.7c-1.3,1.3-3,1.9-4.7,1.9s-3.4-0.6-4.7-1.9L15.6,46.1c-0.9-0.9-0.9-2.3,0-3.2
				c0.9-0.9,2.3-0.9,3.2,0l32.1,31.6c0.9,0.9,2.4,0.9,3.2,0l32.1-31.6c0.9-0.9,2.3-0.8,3.2,0C90.3,43.8,90.3,45.2,89.4,46.1
				 M98,45.7C98,38.3,91.9,30,84.5,30H22c-7.4,0-14,8.3-14,15.7v31.3C8,84.3,14.6,91,22,91h62.5C91.9,91,98,84.3,98,76.9V45.7z"/>
		</g>
	</g>
</g>
<g id="Layer_2">
</g>
</svg>
