<?xml version="1.0" encoding="utf-8"?>
<!-- Generator: Adobe Illustrator 19.0.1, SVG Export Plug-In . SVG Version: 6.00 Build 0)  -->
<svg version="1.1" id="Layer_1" xmlns="http://www.w3.org/2000/svg" xmlns:xlink="http://www.w3.org/1999/xlink" x="0px" y="0px"
	 viewBox="0 0 3681.4 932.9" style="enable-background:new 0 0 3681.4 932.9;" xml:space="preserve">
<style type="text/css">
	.st0{fill:#444D5A;}
</style>
<g>
	<path class="st0" d="M2584.6,139.7c0-37.6-30.5-68.2-68.1-68.2c-37.6,0-68.1,30.5-68.1,68.2c0,37.6,30.5,68.1,68.1,68.1
		C2554.1,207.8,2584.6,177.3,2584.6,139.7z"/>
	<path class="st0" d="M967.1,283.3c-23.6,0-42.6,18.9-42.6,42.4c0,0.1,0,0.3,0,0.3h0l-0.2,239H787.9c-52.2,0-95.5-57-95.5-109.2V326
		H692c0,0,0-0.2,0-0.3c0-23.4-19-42.4-42.5-42.4c-23.5,0-42.4,19-42.4,42.4c0,0.1,0,0.3,0,0.3h0.3v129.8
		C607.4,556,688.7,653,787.8,653h136.4l0.2,14.9c0,52.2-43.7,106.5-95.9,106.5l-184.2,0.5v0.1c-22,0.9-40.5,19.6-40.5,42.6
		c0,22.9,18.5,41.7,40.5,42.5v0.1l184.6-0.5c100.1,0,181.4-91.6,181.4-191.8V326h-0.7c0,0,0-0.2,0-0.3
		C1009.7,302.2,990.6,283.3,967.1,283.3z"/>
	<path class="st0" d="M2310.4,283.9c-23.1,0-41.8,18.1-42.6,41.1h0.5v352.7c0,52.2-43.2,95.3-95.4,95.3h-25.6
		c-52.2,0-96-43.1-96-95.3V325h0.1c-0.7-23-19.5-41.1-42.6-41.1c-23.1,0-41.8,18.1-42.6,41.1h0.1v352.7c0,52.2-40.7,95.3-93.9,95.3
		h-26.6c-52.2,0-95.5-43.1-95.5-95.3V471h-0.5c-0.4-98-56.5-173.9-152.4-177.2c-1.3-0.1-2.7-0.2-4.1-0.2
		c-23.6,0-42.6,18.7-42.6,42.2s19.1,42.2,42.6,42.2c0,0,0,0,0,0v0.5c52,0,71,40.5,71.3,92.5h0.7v206.7
		c0,100.1,80.3,181.3,180.5,181.3h25.6c53.3,0,107.6-33.1,136.4-82.1c28.8,49,83.1,82.1,136.4,82.1h28.8
		c100.2,0,180.4-82.2,180.4-181.3V325h-0.3C2352.3,302,2333.5,283.9,2310.4,283.9z"/>
	<path class="st0" d="M2646.4,775.3L2646.4,775.3c-59,0-87-47.1-87-100V322h-0.4c-1.8-21-20.1-39-42.5-39c-22.4,0-40.7,18-42.5,39
		h0.4v353.3c0,101.5,53.3,184.7,168,184.7h2.4c23.6,0,42.6-18.9,42.6-42.4C2687.3,794.7,2669.4,776.2,2646.4,775.3z"/>
	<path class="st0" d="M3494.4,774.9v0.1h-160.1c-52.2,0-95.9-43.8-95.9-96v-26h136.4c99.1,0,181.1-79.8,181.1-179.9
		c0-100.2-81-181.1-181.1-181.1h-40.5c-100.2,0-180.9,81.1-180.9,181.3V679c0,100.2,80.7,181,180.9,181h160.1v0.1
		c24-0.2,42.3-19.2,42.3-42.6C3536.7,794.1,3518.4,775,3494.4,774.9z M3238.4,472c0-52.2,43.7-96,95.9-96h40.5
		c52.2,0,95.9,43.8,95.9,96c0,52.3-43.7,95-95.9,95h-136.4V472z"/>
	<path class="st0" d="M3064.4,290.8c-0.4,0-1.1,0-1.1,0v0.1h-122.9c-100.2,0-181.1,80.8-181.1,181v347h0c1,23,19.6,40.7,42.6,40.7
		c22.9,0,41.6-17.7,42.6-40.7h0.8V472c0-52.2,42.9-96,95.1-96h122.9v-0.3c0,0,0.7,0,1.1,0c23.5,0,42.6-19,42.6-42.5
		C3107,309.9,3088,290.8,3064.4,290.8z"/>
	<path class="st0" d="M505.4,777.2V777h-203c-51.2,0-94-42.7-94-93.8v-86.7c0-51.1,41.8-94.4,92.9-94.4h167.1v0.4
		c23-0.2,41.3-18.8,41.3-41.7c0-22.9-18.3-41.5-41.3-41.7v0.1H301.3c-51.1,0-92.9-42.9-92.9-94.1v-49.1c0-51.2,42.8-93.8,94-93.8
		h194.1c2.4,0,4.8,0.6,7.3,0.6c23.3,0,42.4-18.9,42.4-42.1c0-22.9-18.8-41.6-40.8-42.1V98h-203c-98.1,0-177,79.7-177,177.8V326
		c0,52.2,32.4,105.5,80.4,133.7c-48.1,28.2-80.4,81.5-80.4,133.7v89.8c0,98.2,78.9,177.8,177,177.8h203v-0.3
		c23-0.3,41.5-18.9,41.5-41.8C546.8,796.1,528.4,777.5,505.4,777.2z"/>
	<path class="st0" d="M1342.2,652c99.1,0,181.2-79.8,181.2-180c0-100.2-81-181-181.2-181h-40.5c-100.2,0-181.3,80.8-181.3,181v94.4
		v83.9v27.4c0,100.1,81.1,181.3,181.3,181.3h142.7v-0.2c22-1,40.7-19.7,40.7-42.6c0-22.9-18.7-41.6-40.7-42.6V773h-142.7
		c-52.2,0-95.3-43.1-95.3-95.3V652H1342.2z M1206.4,472c0-52.2,43.1-96,95.3-96h40.5c52.2,0,95.9,43.8,95.9,96
		c0,52.3-43.7,95-95.9,95h-135.8V472z"/>
</g>
</svg>
