<?xml version="1.0" encoding="utf-8"?>
<!-- Generator: Adobe Illustrator 19.0.1, SVG Export Plug-In . SVG Version: 6.00 Build 0)  -->
<svg version="1.1" id="Layer_1" xmlns="http://www.w3.org/2000/svg" xmlns:xlink="http://www.w3.org/1999/xlink" x="0px" y="0px"
	 viewBox="0 0 498.4 106" style="enable-background:new 0 0 498.4 106;" xml:space="preserve">
<style type="text/css">
	.st0{fill:#1A1A1A;}
	.st1{fill:#79C0F2;}
	.st2{fill:#434C59;}
	.st3{fill:#F2F6F7;}
	.st4{fill:#FFFFFF;}
	.st5{fill:#3C5A99;}
	.st6{fill:#6AB6EA;}
	.st7{fill:#002F4B;}
</style>
<g>
	<path class="st3" d="M168.9,66c-6.5-6.5-16.6-6.5-27.3-6.4c-1.9,0-3.8,0-5.6,0c-10.7,0-20.8-0.1-27.3,6.4c-4.7,4.6-6.9,12.2-6.9,23
		c0,6.3,9.8,8.4,13,9.1c6.4,1.4,14.9,2.1,24,2.1c11.1,0,37-1.1,37-11.3C175.8,78.1,173.5,70.6,168.9,66z"/>
	<path class="st3" d="M138.8,49.3c11.2,0,20.3-9.1,20.3-20.3c0-11.2-9.1-20.3-20.3-20.3c-11.2,0-20.4,9.1-20.4,20.3
		C118.4,40.2,127.5,49.3,138.8,49.3z"/>
</g>
<path class="st3" d="M67.9,44.5c0-2.5-0.1-6.2-0.1-6.5c-0.7-13-11-23.3-23.4-23.3c-12.3,0-22.5,10.1-23.4,23c0,0.4,0,4.2,0,6.8
	c-6,1.6-10.1,6.9-10.1,13.4v22.5c0,7.9,6.3,14.6,13.9,14.6H64c7.6,0,13.9-6.5,13.9-14.6V57.9C77.9,51.5,73.7,46.2,67.9,44.5z
	 M46.9,78c0,1.7-1.3,3-3,3s-3-1.3-3-3V61c0-1.7,1.3-3,3-3s3,1.3,3,3V78z M25.5,44c0-2.5,0-5.6,0-5.9c0.7-10.5,9-18.9,18.9-18.9
	c10,0,18.3,8.4,18.9,19c0,0.3,0,3.4,0,5.8H25.5z"/>
<g>
	<g>
		<path class="st3" d="M282.8,47.1l-32.1,31.6c-1.3,1.3-3,1.9-4.7,1.9s-3.4-0.6-4.7-1.9L209,47.1c-0.9-0.9-0.9-2.3,0-3.2
			c0.9-0.9,2.3-0.9,3.2,0l32.1,31.6c0.9,0.9,2.4,0.9,3.2,0l32.1-31.6c0.9-0.9,2.3-0.8,3.2,0C283.7,44.8,283.7,46.2,282.8,47.1
			 M291.9,46.7c0-7.4-6.6-15.7-14-15.7h-62.5c-7.4,0-13.5,8.3-13.5,15.7v31.3c0,7.4,6.1,14.1,13.5,14.1h62.5c7.4,0,14-6.7,14-14.1
			V46.7z"/>
	</g>
</g>
<path id="f_4_" class="st3" d="M345.9,84V61h7.5l1.1-9h-8.6v-5.7c0-2.6,0.7-4.3,4.3-4.3l4.7,0V34c-0.9-0.1-3.5-0.3-6.7-0.3
	c-6.8,0-11.3,4.1-11.3,11.7V52h-8v9h8v23H345.9z"/>
<g>
	<path class="st3" d="M482.1,92h-37.5c-2,0-3.6-1.5-3.6-3.5s1.6-3.5,3.6-3.5h34.4V24h-34.4c-2,0-3.6-1.5-3.6-3.5s1.6-3.5,3.6-3.5
		h37.5c2,0,3.9,1.6,3.9,3.6v67.9C485.9,90.4,484,92,482.1,92z"/>
</g>
<g>
	<path class="st3" d="M453.1,55.3l-30.2-30.2V53h-28.6c-2,0-3.6,1.5-3.6,3.5s1.6,3.5,3.6,3.5h28.6v25.5L453.1,55.3z"/>
</g>
</svg>
