<?xml version="1.0" encoding="utf-8"?>
<!-- Generator: Adobe Illustrator 19.0.1, SVG Export Plug-In . SVG Version: 6.00 Build 0)  -->
<svg version="1.1" xmlns="http://www.w3.org/2000/svg" xmlns:xlink="http://www.w3.org/1999/xlink" x="0px" y="0px"
	 viewBox="0 0 741.9 106" style="enable-background:new 0 0 741.9 106;" xml:space="preserve">
<style type="text/css">
	.st0{fill:#1A1A1A;}
	.st1{fill:#79C0F2;}
	.st2{fill:#434C59;}
	.st3{fill:#F2F6F7;}
	.st4{fill:#FFFFFF;}
	.st5{fill:#3C5A99;}
	.st6{fill:#6AB6EA;}
	.st7{fill:#002F4B;}
</style>
<g id="Layer_1">
	<g>
		<path class="st3" d="M169.4,66c-6.5-6.5-16.6-6.5-27.3-6.4c-1.9,0-3.8,0-5.6,0c-10.7,0-20.8-0.1-27.3,6.4
			c-4.7,4.6-6.9,12.2-6.9,23c0,6.3,9.8,8.4,13,9.1c6.4,1.4,14.9,2.1,24,2.1c11.1,0,37-1.1,37-11.3C176.3,78.1,174,70.6,169.4,66z"/>
		<path class="st3" d="M139.3,49.3c11.2,0,20.3-9.1,20.3-20.3c0-11.2-9.1-20.3-20.3-20.3c-11.2,0-20.4,9.1-20.4,20.3
			C118.9,40.2,128,49.3,139.3,49.3z"/>
	</g>
	<path class="st3" d="M68.2,44.5c0-2.5,0.1-6.2,0.1-6.5c-0.7-13-11-23.3-23.3-23.3c-12.3,0-22.5,10.1-23.3,23c0,0.4-0.2,4.2-0.2,6.8
		c-6,1.6-10.4,6.9-10.4,13.4v22.5c0,7.9,6.8,14.6,14.4,14.6h39.2c7.6,0,13.4-6.5,13.4-14.6V57.9C77.9,51.5,73.9,46.2,68.2,44.5z
		 M46.9,78c0,1.7-1.3,3-3,3s-3-1.3-3-3V61c0-1.7,1.3-3,3-3s3,1.3,3,3V78z M26,44c0-2.5,0-5.6,0-5.9c0.7-10.5,9-18.9,18.9-18.9
		c10,0,18.3,8.4,18.9,19c0,0.3,0,3.4,0,5.8H26z"/>
	<g>
		<g>
			<path class="st3" d="M283.3,47.1l-32.1,31.6c-1.3,1.3-3,1.9-4.7,1.9s-3.4-0.6-4.7-1.9l-32.1-31.6c-0.9-0.9-0.9-2.3,0-3.2
				c0.9-0.9,2.3-0.9,3.2,0l32.1,31.6c0.9,0.9,2.4,0.9,3.2,0l32.1-31.6c0.9-0.9,2.3-0.8,3.2,0C284.2,44.8,284.2,46.2,283.3,47.1
				 M291.9,46.7c0-7.4-6.1-15.7-13.5-15.7h-62.5c-7.4,0-14,8.3-14,15.7v31.3c0,7.4,6.6,14.1,14,14.1h62.5c7.4,0,13.5-6.7,13.5-14.1
				V46.7z"/>
		</g>
	</g>
	<path id="f_4_" class="st3" d="M345.9,84V61h8l1.1-9h-9.1v-5.7c0-2.6,0.7-4.3,4.3-4.3l4.7,0V34c0-0.1-3.5-0.3-6.7-0.3
		c-6.8,0-11.3,4.1-11.3,11.7V52h-8v9h8v23H345.9z"/>
	<g>
		<path class="st3" d="M482.6,92h-37.5c-2,0-3.6-1.5-3.6-3.5s1.6-3.5,3.6-3.5h33.9V24h-33.9c-2,0-3.6-1.5-3.6-3.5s1.6-3.5,3.6-3.5
			h37.5c2,0,3.4,1.6,3.4,3.6v67.9C485.9,90.4,484.5,92,482.6,92z"/>
	</g>
	<g>
		<path class="st3" d="M453.1,55.3l-30.2-30.2V53h-28.1c-2,0-3.6,1.5-3.6,3.5s1.6,3.5,3.6,3.5h28.1v25.5L453.1,55.3z"/>
	</g>
	<g>
		<path class="st3" d="M578.4,64.1c-6.5-6.5-16.6-6.5-27.3-6.4c-1.9,0-3.8,0-5.6,0c-10.7,0-20.8-0.1-27.3,6.4
			c-4.7,4.7-6.9,12.2-6.9,23.1c0,6.3,9.8,8.4,13,9.1c6.4,1.4,14.9,2.1,24.1,2.1c11.2,0,37.1-1.1,37.1-11.3
			C585.4,76.3,583.1,68.7,578.4,64.1z"/>
		<path class="st3" d="M548.3,47.4c11.2,0,20.4-9.1,20.4-20.4c0-11.2-9.1-20.4-20.4-20.4c-11.2,0-20.4,9.1-20.4,20.4
			C527.9,38.3,537.1,47.4,548.3,47.4z"/>
		<path class="st3" d="M610.9,37h-14V24c-2,0-6,0-10,0v13h-12c0,2,0,7,0,10h12v14c6,0,9,0,10,0V47h14C610.9,44,610.9,39,610.9,37z"
			/>
	</g>
	<path class="st3" d="M578.4,64c-6.5-6.5-16.6-6.5-27.3-6.4c-1.9,0-3.8,0-5.6,0c-10.7,0-20.8-0.1-27.3,6.4c-4.7,4.6-6.9,12.2-6.9,23
		c0,6.3,9.8,8.4,13,9.1c6.4,1.4,14.9,2.1,24,2.1c11.1,0,37-1.1,37-11.3C585.3,76.1,583,68.6,578.4,64z"/>
	<path class="st3" d="M548.3,47.3c11.2,0,20.3-9.1,20.3-20.3c0-11.2-9.1-20.3-20.3-20.3c-11.2,0-20.4,9.1-20.4,20.3
		C527.9,38.2,537,47.3,548.3,47.3z"/>
</g>
<g id="Layer_2">
	<path class="st3" d="M715,71.2c-3.7,0-7,1.3-9.6,3.5L678,58.7c0.8-2.3,1.2-4.7,1.2-7.3c0-2.2-0.3-4.3-0.9-6.4L705,30.8
		c2.6,2.4,6.1,3.9,10,3.9c8.1,0,14.7-6.6,14.7-14.7S723.2,5.4,715,5.4s-14.7,6.6-14.7,14.7c0,0.8,0.1,1.6,0.2,2.3l-26.7,14.2
		c-4.2-5-10.5-8.2-17.6-8.2c-12.7,0-23,10.3-23,23s10.3,23,23,23c6.7,0,12.8-2.9,17-7.5L700.6,83c-0.2,0.9-0.3,1.9-0.3,2.9
		c0,8.1,6.6,14.7,14.7,14.7s14.7-6.6,14.7-14.7S723.2,71.2,715,71.2z"/>
</g>
</svg>
