<?xml version="1.0" encoding="utf-8"?>
<!-- Generator: Adobe Illustrator 19.1.0, SVG Export Plug-In . SVG Version: 6.00 Build 0)  -->
<svg version="1.1" id="Layer_1" xmlns="http://www.w3.org/2000/svg" xmlns:xlink="http://www.w3.org/1999/xlink" x="0px" y="0px"
	 viewBox="-440 448 118.8 106" style="enable-background:new -440 448 118.8 106;" xml:space="preserve">
<style type="text/css">
	.st0{fill:#FAFAF0;}
</style>
<g id="Layer_1_1_">
	<g>
		<path class="st0" d="M-364.2,513.1c-6.5-6.5-16.6-6.5-27.3-6.4c-1.9,0-3.8,0-5.6,0c-10.7,0-20.8-0.1-27.3,6.4
			c-4.7,4.7-6.9,12.2-6.9,23.1c0,6.3,9.8,8.4,13,9.1c6.4,1.4,14.9,2.1,24.1,2.1c11.2,0,37.1-1.1,37.1-11.3
			C-357.3,525.3-359.6,517.7-364.2,513.1z"/>
		<path class="st0" d="M-394.4,496.4c11.3,0,20.4-9.1,20.4-20.4c0-11.2-9.1-20.4-20.4-20.4c-11.2,0-20.4,9.1-20.4,20.4
			S-405.6,496.4-394.4,496.4z"/>
		<path class="st0" d="M-332,486h-14v-13c-2,0-6,0-10,0v13h-12c0,2,0,7,0,10h12v14c6,0,9,0,10,0v-14h14C-332,493-332,488-332,486z"
			/>
	</g>
	<path class="st0" d="M-364.3,513c-6.5-6.5-16.6-6.5-27.3-6.4c-1.9,0-3.8,0-5.6,0c-10.7,0-20.8-0.1-27.3,6.4
		c-4.7,4.6-6.9,12.2-6.9,23c0,6.3,9.8,8.4,13,9.1c6.4,1.4,14.9,2.1,24,2.1c11.1,0,37-1.1,37-11.2
		C-357.4,525.1-359.7,517.6-364.3,513z"/>
	<path class="st0" d="M-394.4,496.3c11.2,0,20.3-9.1,20.3-20.3s-9.1-20.3-20.3-20.3c-11.2,0-20.4,9.1-20.4,20.3
		C-414.8,487.2-405.6,496.3-394.4,496.3z"/>
</g>
<g id="Layer_2">
</g>
</svg>
