<?xml version="1.0" encoding="utf-8"?>
<!-- Generator: Adobe Illustrator 19.1.0, SVG Export Plug-In . SVG Version: 6.00 Build 0)  -->
<svg version="1.1" xmlns="http://www.w3.org/2000/svg" xmlns:xlink="http://www.w3.org/1999/xlink" x="0px" y="0px"
	 viewBox="0 0 108.7 106" style="enable-background:new 0 0 108.7 106;" xml:space="preserve">
<style type="text/css">
	.st0{fill:#1A1A1A;}
	.st1{fill:#79C0F2;}
	.st2{fill:#434C59;}
	.st3{fill:#F2F6F7;}
	.st4{fill:#79C0F2;stroke:#FFFFFF;stroke-width:4;stroke-miterlimit:10;}
	.st5{fill:#FFFFFF;}
	.st6{fill:#3C5A99;}
	.st7{fill:#6AB6EA;}
	.st8{fill:#002F4B;}
	.st9{fill:#495E72;}
	.st10{fill:#79C0F2;stroke:#FFFFFF;stroke-width:5;stroke-miterlimit:10;}
	.st11{fill:#79C0F2;stroke:#FFFFFF;stroke-width:3;stroke-miterlimit:10;}
	.st12{fill:none;stroke:#FFFFFF;stroke-width:4;stroke-linecap:round;stroke-miterlimit:10;}
</style>
<g id="Layer_1">
	<g>
		<path class="st9" d="M93.3,91H55.8c-2,0-3.6-1.5-3.6-3.5s1.6-3.5,3.6-3.5h33.9V23H55.8c-2,0-3.6-1.5-3.6-3.5s1.6-3.5,3.6-3.5h37.5
			c2,0,3.4,1.6,3.4,3.6v67.9C96.7,89.4,95.3,91,93.3,91z"/>
	</g>
	<g>
		<path class="st9" d="M63.9,54.3L33.7,24.1V52H5.5c-2,0-3.6,1.5-3.6,3.5S3.6,59,5.5,59h28.1v25.5L63.9,54.3z"/>
	</g>
</g>
<g id="Layer_2">
</g>
</svg>
