<?xml version="1.0" encoding="utf-8"?>
<!-- Generator: Adobe Illustrator 19.1.0, SVG Export Plug-In . SVG Version: 6.00 Build 0)  -->
<svg version="1.1" xmlns="http://www.w3.org/2000/svg" xmlns:xlink="http://www.w3.org/1999/xlink" x="0px" y="0px"
	 viewBox="0 0 302.9 106" style="enable-background:new 0 0 302.9 106;" xml:space="preserve">
<style type="text/css">
	.st0{fill:#1A1A1A;}
	.st1{fill:#79C0F2;}
	.st2{fill:#0071BC;}
	.st3{fill:#29ABE2;}
	.st4{fill:#434C59;}
	.st5{fill:#F2F6F7;}
	.st6{fill:#79C0F2;stroke:#FFFFFF;stroke-width:4;stroke-miterlimit:10;}
	.st7{fill:#FFFFFF;}
	.st8{fill:#3C5A99;}
	.st9{fill:#6AB6EA;}
	.st10{fill:#002F4B;}
	.st11{fill:#495E72;}
	.st12{fill:#79C0F2;stroke:#FFFFFF;stroke-width:5;stroke-miterlimit:10;}
	.st13{fill:#79C0F2;stroke:#FFFFFF;stroke-width:3;stroke-miterlimit:10;}
	.st14{fill:none;stroke:#FFFFFF;stroke-width:4;stroke-linecap:round;stroke-miterlimit:10;}
</style>
<g id="Layer_1">
	<g>
		<path class="st9" d="M204.5,29.8c0-2.7-2.2-4.9-4.9-4.9c-2.7,0-4.8,2.2-4.8,4.9c0,2.7,2.2,4.9,4.8,4.9
			C202.4,34.6,204.5,32.4,204.5,29.8z"/>
		<path class="st9" d="M89.4,40c-1.7,0-3,1.3-3,3c0,0,0,0,0,0h0l0,17h-9.7c-3.7,0-6.6-4-6.6-7.7V43h-0.2c0,0,0,0,0,0
			c0-1.7-1.4-3-3-3c-1.7,0-3,1.3-3,3c0,0,0,0,0,0H64v9.3C64,59.4,69.5,66,76.6,66h9.7l0,1.2c0,3.7-3.3,7.7-7,7.7L66,75v0
			c-1,0.1-2.9,1.4-2.9,3c0,1.6,1.9,3,2.9,3v0l13.1,0C86.2,81,92,74.5,92,67.4V43h0.4c0,0,0,0,0,0C92.4,41.3,91,40,89.4,40z"/>
		<path class="st9" d="M185,40.1c-1.6,0-3,0.9-3,2.9h0v25.1c0,3.7-3.1,6.9-6.8,6.9h-1.8c-3.7,0-6.4-3.2-6.4-6.9V43h-0.4
			c-0.1-2-1.4-2.9-3-2.9s-3,0.9-3,2.9h0.5v25.1c0,3.7-3.4,6.9-7.2,6.9h-1.9c-3.7,0-6.9-3.2-6.9-6.9V53h0.1c0-7-4-12.2-10.9-12.4
			c-0.1,0-0.2,0.1-0.3,0.1c0,0,0,0.1,0,0.1c0,0,0,0,0,0v0c-2,0.1-3,1.4-3,3c0,1.7,1.3,2.9,3,2.9c3.7,0,5,3.4,5,6.4h0v15.1
			c0,7.1,5.8,12.9,12.9,12.9h1.8c3.8,0,7.7-2.4,9.7-5.8c2.1,3.5,5.9,5.8,9.7,5.8h2.1c7.1,0,12.8-5.9,12.8-12.9V43h0
			C188,41,186.7,40.1,185,40.1z"/>
		<path class="st9" d="M209,75L209,75c-4,0-6-3.4-6-7.1V43h-0.3c-0.1-2-1.4-2.8-3-2.8c-1.6,0-2.9,0.8-3,2.8h0.3v24.9
			c0,7.2,3.5,13.1,11.6,13.1h0.2c1.7,0,3.1-1.3,3.1-3C211.9,76.4,211,75.1,209,75z"/>
		<path class="st9" d="M269,75L269,75l-11.1,0c-3.7,0-6.9-3.1-6.9-6.8V66h9.8c7.1,0,12.9-5.3,12.9-12.5c0-7.1-5.8-12.5-12.9-12.5
			h-2.9c-7.1,0-12.9,5.4-12.9,12.5v14.6c0,7.1,5.8,12.8,12.9,12.8H269v0.1c2,0,3-1.4,3-3C272,76.3,271,75,269,75z M251,53.4
			c0-3.7,3.2-6.4,6.9-6.4h2.9c3.7,0,6.8,2.8,6.8,6.5s-3.1,6.5-6.8,6.5H251V53.4z"/>
		<path class="st9" d="M238.9,40.5c0,0,0.1,0,0.1,0V41h-9.1c-7.1,0-12.9,5.3-12.9,12.4V78h0c0.1,2,1.4,2.9,3,2.9c1.6,0,3-0.9,3-2.9
			h0V53.4c0-3.7,3.1-6.4,6.9-6.4h9.1v-0.4c0,0-0.1,0-0.1,0c1.7,0,3-1.4,3-3C241.9,41.9,240.6,40.5,238.9,40.5z"/>
		<path class="st9" d="M56,75.1V75H42c-3.6,0-7-2.9-7-6.5v-6.2c0-3.6,3.3-6.3,7-6.3h12v-0.4c1,0,2.9-1.3,2.9-3c0-1.6-1.9-2.9-2.9-3
			V50H42c-3.6,0-7-3.4-7-7v-3.5c0-3.6,3.4-6.5,7-6.5h13.9c0.2,0,0.3-0.1,0.5-0.1c1.7,0,2.8-1.4,2.8-3.1c0-1.6-1.2-3-3.2-3.1V27H42
			c-7,0-13,5.5-13,12.5V43c0,3.7,2.3,7.5,5.7,9.5c-3.4,2-5.7,5.8-5.7,9.5v6.4c0,7,6.1,12.5,13,12.5h14v0.1c2,0,3-1.3,3-3
			S58,75.2,56,75.1z"/>
		<path class="st9" d="M116.1,66c7.1,0,12.9-5.3,12.9-12.5c0-7.1-5.8-12.5-12.9-12.5h-2.9c-7.1,0-13.2,5.3-13.2,12.4v6.7v6v2
			c0,7.1,6.1,12.9,13.2,12.9h9.8v-0.1c2-0.1,2.9-1.4,2.9-3c0-1.6-0.9-3-2.9-3V75h-9.8c-3.7,0-7.2-3.2-7.2-6.9V66H116.1z M106,53.4
			c0-3.7,3.5-6.4,7.2-6.4h2.9c3.7,0,6.8,2.8,6.8,6.5s-3.1,6.5-6.8,6.5H106V53.4z"/>
	</g>
</g>
<g id="Layer_2">
</g>
</svg>
