<?xml version="1.0" encoding="utf-8"?>
<!-- Generator: Adobe Illustrator 19.1.0, SVG Export Plug-In . SVG Version: 6.00 Build 0)  -->
<svg version="1.1" xmlns="http://www.w3.org/2000/svg" xmlns:xlink="http://www.w3.org/1999/xlink" x="0px" y="0px"
	 viewBox="0 0 327 203" style="enable-background:new 0 0 327 203;" xml:space="preserve">
<style type="text/css">
	.st0{fill:#1A1A1A;}
	.st1{fill:#79C0F2;}
	.st2{fill:#0071BC;}
	.st3{fill:#29ABE2;}
	.st4{fill:#434C59;}
	.st5{fill:#F2F6F7;}
	.st6{fill:#79C0F2;stroke:#FFFFFF;stroke-width:4;stroke-miterlimit:10;}
	.st7{fill:#FFFFFF;}
	.st8{fill:#3C5A99;}
	.st9{fill:#6AB6EA;}
	.st10{fill:#002F4B;}
	.st11{fill:#495E72;}
	.st12{fill:#79C0F2;stroke:#FFFFFF;stroke-width:5;stroke-miterlimit:10;}
	.st13{fill:#79C0F2;stroke:#FFFFFF;stroke-width:3;stroke-miterlimit:10;}
	.st14{fill:none;stroke:#FFFFFF;stroke-width:4;stroke-linecap:round;stroke-miterlimit:10;}
</style>
<g id="Layer_1">
	<g>
		<path class="st1" d="M191.7,65.2h-56.4c-8.1,0-14.7,6.6-14.7,14.7v33.9c0,8.1,6.6,14.7,14.7,14.7h56.4c8.1,0,14.7-6.6,14.7-14.7
			V80C206.4,71.8,199.8,65.2,191.7,65.2z"/>
		<line class="st14" x1="140" y1="97" x2="186" y2="97"/>
		<line class="st14" x1="140" y1="84" x2="186" y2="84"/>
		<line class="st14" x1="140" y1="111" x2="186" y2="111"/>
		<path class="st1" d="M159.8,123c5.5,0,7.8,2.1,5,5l-7.3,7.6c-2.8,2.9-7.2,2.8-10-0.1l-7.3-7.5c-2.8-2.9-0.5-5.1,5-5.1H159.8z"/>
	</g>
</g>
<g id="Layer_2">
</g>
</svg>
