<?xml version="1.0" encoding="utf-8"?>
<!-- Generator: Adobe Illustrator 19.1.0, SVG Export Plug-In . SVG Version: 6.00 Build 0)  -->
<svg version="1.1" xmlns="http://www.w3.org/2000/svg" xmlns:xlink="http://www.w3.org/1999/xlink" x="0px" y="0px"
	 viewBox="0 0 511 106" style="enable-background:new 0 0 511 106;" xml:space="preserve">
<style type="text/css">
	.st0{fill:#1A1A1A;}
	.st1{fill:#79C0F2;}
	.st2{fill:#0071BC;}
	.st3{fill:#29ABE2;}
	.st4{fill:#434C59;}
	.st5{fill:#F2F6F7;}
	.st6{fill:#79C0F2;stroke:#FFFFFF;stroke-width:4;stroke-miterlimit:10;}
	.st7{fill:#FFFFFF;}
	.st8{fill:#3C5A99;}
	.st9{fill:#6AB6EA;}
	.st10{fill:#002F4B;}
	.st11{fill:#495E72;}
	.st12{fill:#79C0F2;stroke:#FFFFFF;stroke-width:5;stroke-miterlimit:10;}
	.st13{fill:#79C0F2;stroke:#FFFFFF;stroke-width:3;stroke-miterlimit:10;}
	.st14{fill:none;stroke:#FFFFFF;stroke-width:4;stroke-linecap:round;stroke-miterlimit:10;}
</style>
<g id="Layer_1">
	<g>
		<g>
			<path class="st0" d="M430.8,35L403,62.3c-1.1,1.1-2.6,1.7-4.1,1.7s-3-0.6-4.1-1.7L367.1,35c-0.8-0.7-0.8-2,0-2.7
				c0.7-0.8,2-0.8,2.7,0l27.8,27.3c0.8,0.7,2,0.7,2.8,0l27.8-27.3c0.8-0.7,2-0.7,2.7,0C431.6,33,431.6,34.3,430.8,35 M438,34.6
				c0-6.4-5-12.6-11.4-12.6h-54c-6.4,0-12.6,6.2-12.6,12.6v27c0,6.4,6.2,12.4,12.6,12.4h54c6.4,0,11.4-6,11.4-12.4V34.6z"/>
		</g>
	</g>
	<g>
		<path class="st5" d="M168.9,66c-6.5-6.5-16.6-6.5-27.3-6.4c-1.9,0-3.8,0-5.6,0c-10.7,0-20.8-0.1-27.3,6.4
			c-4.7,4.6-6.9,12.2-6.9,23c0,6.3,9.8,8.4,13,9.1c6.4,1.4,14.9,2.1,24,2.1c11.1,0,37-1.1,37-11.2C175.9,78.1,173.6,70.6,168.9,66z"
			/>
		<path class="st5" d="M138.8,49.3c11.2,0,20.3-9.1,20.3-20.3c0-11.2-9.1-20.3-20.3-20.3c-11.2,0-20.4,9.1-20.4,20.3
			C118.5,40.2,127.6,49.3,138.8,49.3z"/>
	</g>
	<g>
		<g>
			<path class="st0" d="M353.8,102.2c-9.3,0-17.9-0.8-24.5-2.2c-3.6-0.8-14.6-3.1-14.6-11.1c0-11.4,2.5-19.4,7.5-24.5
				c6.5-6.5,16-7,26.1-7c0.9,0,4.5,0,5.4,0s4.6,0,5.5,0c10,0,19.5,0.5,26,7c5.1,5,7.5,13,7.5,24.5
				C392.9,100,371.6,102.2,353.8,102.2z"/>
			<path class="st7" d="M359.3,59.5c9.7,0,18.6,0.5,24.6,6.4c4.7,4.6,6.9,12.2,6.9,23c0,10.2-25.9,11.2-37,11.2
				c-9.1,0-17.7-0.8-24-2.1c-3.2-0.7-13-2.8-13-9.1c0-10.9,2.3-18.4,6.9-23c6-6,15-6.4,24.7-6.4c0.9,0,1.7,0,2.6,0
				c0.9,0,1.9,0,2.8,0s1.9,0,2.8,0C357.5,59.5,358.4,59.5,359.3,59.5 M359.3,55.5c-0.9,0-1.8,0-2.7,0c-0.9,0-1.9,0-2.8,0
				s-1.9,0-2.8,0c-0.9,0-1.8,0-2.6,0c-10.5,0-20.5,0.6-27.5,7.6c-5.5,5.4-8.1,13.9-8.1,25.9c0,9.5,12.2,12.2,16.2,13
				c6.6,1.4,15.5,2.2,24.9,2.2c27.2,0,41-5.1,41-15.2c0-12-2.7-20.4-8.1-25.9C379.7,56.1,369.8,55.5,359.3,55.5L359.3,55.5z"/>
		</g>
		<g>
			<path class="st0" d="M353.8,51.3c-12.3,0-22.4-10-22.4-22.3c0-12.3,10-22.3,22.4-22.3c12.3,0,22.3,10,22.3,22.3
				C376.2,41.3,366.2,51.3,353.8,51.3z"/>
			<path class="st7" d="M353.8,8.7c11.2,0,20.3,9.1,20.3,20.3c0,11.2-9.1,20.3-20.3,20.3c-11.2,0-20.4-9.1-20.4-20.3
				C333.5,17.8,342.6,8.7,353.8,8.7 M353.8,4.7c-13.4,0-24.4,10.9-24.4,24.3c0,13.4,10.9,24.3,24.4,24.3c13.4,0,24.3-10.9,24.3-24.3
				C378.2,15.6,367.3,4.7,353.8,4.7L353.8,4.7z"/>
		</g>
	</g>
	<path class="st5" d="M68,44.5c0-2.5-0.1-6.2-0.1-6.5c-0.7-13-11-23.3-23.4-23.3c-12.3,0-22.5,10.1-23.4,23c0,0.4,0,4.2,0,6.8
		c-6,1.6-10.1,6.9-10.1,13.4v22.5C11,88.3,17.3,95,24.9,95h39.2C71.7,95,78,88.5,78,80.4V57.9C78,51.5,73.8,46.2,68,44.5z M47,78
		c0,1.7-1.3,3-3,3s-3-1.3-3-3V61c0-1.7,1.3-3,3-3s3,1.3,3,3V78z M25.5,44c0-2.5,0-5.6,0-5.9c0.7-10.5,9-18.9,18.9-18.9
		c10,0,18.3,8.4,18.9,19c0,0.3,0,3.4,0,5.8H25.5z"/>
	<g>
		<g>
			<path class="st5" d="M282.9,47.1l-32.1,31.6c-1.3,1.3-3,1.9-4.7,1.9s-3.4-0.6-4.7-1.9l-32.1-31.6c-0.9-0.9-0.9-2.3,0-3.2
				c0.9-0.9,2.3-0.9,3.2,0l32.1,31.6c0.9,0.9,2.4,0.9,3.2,0l32.1-31.6c0.9-0.9,2.3-0.8,3.2,0C283.8,44.8,283.8,46.2,282.9,47.1
				 M292,46.7c0-7.4-6.6-15.7-14-15.7h-62.5c-7.4,0-13.5,8.3-13.5,15.7v31.3c0,7.4,6.1,14.1,13.5,14.1H278c7.4,0,14-6.7,14-14.1
				V46.7z"/>
		</g>
	</g>
</g>
<g id="Layer_2">
</g>
</svg>
