<?xml version="1.0" encoding="utf-8"?>
<!-- Generator: Adobe Illustrator 19.1.0, SVG Export Plug-In . SVG Version: 6.00 Build 0)  -->
<svg version="1.1" xmlns="http://www.w3.org/2000/svg" xmlns:xlink="http://www.w3.org/1999/xlink" x="0px" y="0px"
	 viewBox="0 0 302.9 106" style="enable-background:new 0 0 302.9 106;" xml:space="preserve">
<style type="text/css">
	.st0{fill:#1A1A1A;}
	.st1{fill:#79C0F2;}
	.st2{fill:#0071BC;}
	.st3{fill:#29ABE2;}
	.st4{fill:#434C59;}
	.st5{fill:#F2F6F7;}
	.st6{fill:#79C0F2;stroke:#FFFFFF;stroke-width:4;stroke-miterlimit:10;}
	.st7{fill:#FFFFFF;}
	.st8{fill:#3C5A99;}
	.st9{fill:#6AB6EA;}
	.st10{fill:#002F4B;}
	.st11{fill:#495E72;}
	.st12{fill:#79C0F2;stroke:#FFFFFF;stroke-width:5;stroke-miterlimit:10;}
	.st13{fill:#79C0F2;stroke:#FFFFFF;stroke-width:3;stroke-miterlimit:10;}
	.st14{fill:none;stroke:#FFFFFF;stroke-width:4;stroke-linecap:round;stroke-miterlimit:10;}
</style>
<g id="Layer_1">
	<g>
		<path class="st4" d="M204.4,29.8c0-2.7-2.2-4.9-4.9-4.9c-2.7,0-4.8,2.2-4.8,4.9c0,2.7,2.2,4.9,4.8,4.9
			C202.2,34.6,204.4,32.4,204.4,29.8z"/>
		<path class="st4" d="M89.2,40c-1.7,0-3,1.3-3,3c0,0,0,0,0,0h0l0,17h-9.7c-3.7,0-6.5-4-6.5-7.7V43h-0.3c0,0,0,0,0,0
			c0-1.7-1.4-3-3-3c-1.7,0-3,1.3-3,3c0,0,0,0,0,0h0.3v9.3c0,7.1,5.5,13.7,12.5,13.7h9.7l0,1.2c0,3.7-3.3,7.7-7,7.7L65.9,75v0
			c-1,0.1-2.9,1.4-2.9,3c0,1.6,1.9,3,2.9,3v0L79,81c7.1,0,12.9-6.5,12.9-13.7V43h0.3c0,0,0,0,0,0C92.2,41.3,90.9,40,89.2,40z"/>
		<path class="st4" d="M184.8,40.1c-1.6,0-3,0.9-3,2.9h0.1v25.1c0,3.7-3.1,6.9-6.9,6.9h-1.8c-3.7,0-6.3-3.2-6.3-6.9V43h-0.5
			c-0.1-2-1.4-2.9-3-2.9c-1.6,0-3,0.9-3,2.9h0.6v25.1c0,3.7-3.5,6.9-7.3,6.9h-1.9c-3.7,0-6.9-3.2-6.9-6.9V53h0c0-7-4-12.2-10.9-12.4
			c-0.1,0-0.2,0.1-0.3,0.1c0,0,0.1,0.1,0.1,0.1c0,0,0.1,0,0.1,0v0c-2,0.1-3,1.4-3,3c0,1.7,1.3,2.9,3,2.9c3.7,0,5,3.4,5,6.4h0v15.1
			c0,7.1,5.7,12.9,12.9,12.9h1.8c3.8,0,7.7-2.4,9.7-5.8c2.1,3.5,5.9,5.8,9.7,5.8h2.1c7.1,0,12.9-5.9,12.9-12.9V43h0
			C187.8,41,186.5,40.1,184.8,40.1z"/>
		<path class="st4" d="M208.9,75L208.9,75c-4,0-6-3.4-6-7.1V43h-0.4c-0.1-2-1.4-2.8-3-2.8c-1.6,0-2.9,0.8-3,2.8h0.4v24.9
			c0,7.2,3.4,13.1,11.6,13.1h0.2c1.7,0,3.1-1.3,3.1-3C211.8,76.4,210.9,75.1,208.9,75z"/>
		<path class="st4" d="M268.9,75L268.9,75l-11.2,0c-3.7,0-6.8-3.1-6.8-6.8V66h9.7c7.1,0,12.9-5.3,12.9-12.5
			c0-7.1-5.8-12.5-12.9-12.5h-2.9c-7.1,0-12.8,5.4-12.8,12.5v14.6c0,7.1,5.7,12.8,12.8,12.8h11.2v0.1c2,0,3-1.4,3-3
			C271.9,76.3,270.9,75,268.9,75z M250.9,53.4c0-3.7,3.1-6.4,6.8-6.4h2.9c3.7,0,6.8,2.8,6.8,6.5s-3.1,6.5-6.8,6.5h-9.7V53.4z"/>
		<path class="st4" d="M238.9,40.5V41h-9.2c-7.1,0-12.8,5.3-12.8,12.4V78h-0.1c0.1,2,1.4,2.9,3,2.9c1.6,0,3-0.9,3-2.9h0.1V53.4
			c0-3.7,3.1-6.4,6.8-6.4h9.2v-0.4c0,0-0.1,0-0.1,0c1.7,0,3-1.4,3-3C241.8,41.9,240.9,40.6,238.9,40.5z"/>
		<path class="st4" d="M238.7,40.5C238.8,40.5,238.8,40.5,238.7,40.5L238.7,40.5C238.8,40.5,238.8,40.5,238.7,40.5z"/>
		<path class="st4" d="M41.9,33h13.9c0.2,0,0.3-0.1,0.5-0.1c1.7,0,2.8-1.4,2.8-3.1c0-1.6-1.1-3-3.1-3.1V27h-14c-7,0-13,5.5-13,12.5
			V43c0,3.7,2.3,7.5,5.7,9.5c-3.4,2-5.7,5.8-5.7,9.5v6.4c0,7,6,12.5,13,12.5h14v0.1c2,0,3-1.3,3-3c0-1.6-1-3-3-3V75h-14
			c-3.6,0-7-2.9-7-6.5v-6.2c0-3.6,3.2-6.3,6.9-6.3h12.1v-0.4c1,0,2.9-1.3,2.9-3s-1.9-2.9-2.9-3V50H41.8c-3.6,0-6.9-3.4-6.9-7v-3.5
			C34.9,35.8,38.2,33,41.9,33z"/>
		<path class="st4" d="M115.9,66c7.1,0,12.9-5.3,12.9-12.5c0-7.1-5.8-12.5-12.9-12.5H113c-7.1,0-13.1,5.3-13.1,12.4v6.7v6v2
			c0,7.1,6,12.9,13.1,12.9h9.9v-0.1c2-0.1,2.9-1.4,2.9-3c0-1.6-0.9-3-2.9-3V75H113c-3.7,0-7.1-3.2-7.1-6.9V66H115.9z M105.9,53.4
			c0-3.7,3.4-6.4,7.1-6.4h2.9c3.7,0,6.8,2.8,6.8,6.5s-3.1,6.5-6.8,6.5h-10V53.4z"/>
	</g>
</g>
<g id="Layer_2">
</g>
</svg>
