<?xml version="1.0" encoding="utf-8"?>
<!-- Generator: Adobe Illustrator 19.1.0, SVG Export Plug-In . SVG Version: 6.00 Build 0)  -->
<svg version="1.1" xmlns="http://www.w3.org/2000/svg" xmlns:xlink="http://www.w3.org/1999/xlink" x="0px" y="0px"
	 viewBox="0 0 88.9 106" style="enable-background:new 0 0 88.9 106;" xml:space="preserve">
<style type="text/css">
	.st0{fill:#1A1A1A;}
	.st1{fill:#79C0F2;}
	.st2{fill:#0071BC;}
	.st3{fill:#29ABE2;}
	.st4{fill:#434C59;}
	.st5{fill:#F2F6F7;}
	.st6{fill:#79C0F2;stroke:#FFFFFF;stroke-width:4;stroke-miterlimit:10;}
	.st7{fill:#FFFFFF;}
	.st8{fill:#3C5A99;}
	.st9{fill:#6AB6EA;}
	.st10{fill:#002F4B;}
	.st11{fill:#495E72;}
	.st12{fill:#79C0F2;stroke:#FFFFFF;stroke-width:5;stroke-miterlimit:10;}
	.st13{fill:#79C0F2;stroke:#FFFFFF;stroke-width:3;stroke-miterlimit:10;}
	.st14{fill:none;stroke:#FFFFFF;stroke-width:4;stroke-linecap:round;stroke-miterlimit:10;}
</style>
<g id="Layer_1">
	<path class="st11" d="M66.9,44.5c0-2.5,0.2-6.2,0.2-6.5c-0.7-13-10.9-23.3-23.3-23.3c-12.3,0-22.5,10.1-23.3,23
		c0,0.4-0.4,4.2-0.4,6.8c-6,1.6-10.6,6.9-10.6,13.4v22.5c0,7.9,7.2,14.6,14.8,14.6h39.2c7.6,0,13-6.5,13-14.6V57.9
		C76.4,51.5,72.7,46.2,66.9,44.5z M45.4,78c0,1.7-1.3,3-3,3s-3-1.3-3-3V61c0-1.7,1.3-3,3-3s3,1.3,3,3V78z M24.9,44
		c0-2.5,0-5.6,0-5.9c0.7-10.5,9-18.9,18.9-18.9c10,0,18.3,8.4,18.9,19c0,0.3,0,3.4,0,5.8H24.9z"/>
</g>
<g id="Layer_2">
</g>
</svg>
