<?xml version="1.0" encoding="utf-8"?>
<!-- Generator: Adobe Illustrator 19.1.0, SVG Export Plug-In . SVG Version: 6.00 Build 0)  -->
<svg version="1.1" xmlns="http://www.w3.org/2000/svg" xmlns:xlink="http://www.w3.org/1999/xlink" x="0px" y="0px"
	 viewBox="0 0 327 203" style="enable-background:new 0 0 327 203;" xml:space="preserve">
<style type="text/css">
	.st0{fill:#1A1A1A;}
	.st1{fill:#79C0F2;}
	.st2{fill:#0071BC;}
	.st3{fill:#29ABE2;}
	.st4{fill:#434C59;}
	.st5{fill:#F2F6F7;}
	.st6{fill:#79C0F2;stroke:#FFFFFF;stroke-width:4;stroke-miterlimit:10;}
	.st7{fill:#FFFFFF;}
	.st8{fill:#3C5A99;}
	.st9{fill:#6AB6EA;}
	.st10{fill:#002F4B;}
	.st11{fill:#495E72;}
	.st12{fill:#79C0F2;stroke:#FFFFFF;stroke-width:5;stroke-miterlimit:10;}
	.st13{fill:#79C0F2;stroke:#FFFFFF;stroke-width:3;stroke-miterlimit:10;}
	.st14{fill:none;stroke:#FFFFFF;stroke-width:4;stroke-linecap:round;stroke-miterlimit:10;}
</style>
<g id="Layer_1">
	<g>
		<path class="st6" d="M149.6,110.1c-4.8-4.8-12.2-4.7-20-4.7c-1.4,0-2.8,0-4.1,0c-7.8,0-15.3-0.1-20.1,4.7c-3.4,3.4-5.1,9-5.1,16.9
			c0,4.6,7.2,6.2,9.6,6.7c4.7,1,11,1.6,17.7,1.6c8.2,0,27.2-0.8,27.2-8.3C154.7,119,153,113.5,149.6,110.1z"/>
		<path class="st6" d="M127.5,97.9c8.2,0,14.9-6.7,14.9-14.9c0-8.2-6.7-14.9-14.9-14.9c-8.2,0-15,6.7-15,14.9
			C112.6,91.2,119.3,97.9,127.5,97.9z"/>
	</g>
	<g>
		<path class="st6" d="M221.6,110.1c-4.8-4.8-12.2-4.7-20-4.7c-1.4,0-2.8,0-4.1,0c-7.8,0-15.3-0.1-20.1,4.7c-3.4,3.4-5.1,9-5.1,16.9
			c0,4.6,7.2,6.2,9.6,6.7c4.7,1,11,1.6,17.7,1.6c8.2,0,27.2-0.8,27.2-8.3C226.7,119,225,113.5,221.6,110.1z"/>
		<path class="st6" d="M199.5,97.9c8.2,0,14.9-6.7,14.9-14.9c0-8.2-6.7-14.9-14.9-14.9c-8.2,0-15,6.7-15,14.9
			C184.6,91.2,191.3,97.9,199.5,97.9z"/>
	</g>
	<g>
		<path class="st13" d="M193.6,113c-6.5-6.5-16.6-6.5-27.3-6.4c-1.9,0-3.8,0-5.6,0c-10.7,0-20.8-0.1-27.3,6.4
			c-4.7,4.6-6.9,12.2-6.9,23c0,6.3,9.8,8.4,13,9.1c6.4,1.4,14.9,2.1,24,2.1c11.1,0,37-1.1,37-11.2
			C200.5,125.2,198.3,117.6,193.6,113z"/>
		<path class="st13" d="M163.5,96.4c11.2,0,20.3-9.1,20.3-20.3c0-11.2-9.1-20.3-20.3-20.3c-11.2,0-20.4,9.1-20.4,20.3
			C143.2,87.2,152.3,96.4,163.5,96.4z"/>
	</g>
</g>
<g id="Layer_2">
</g>
</svg>
