<?xml version="1.0" encoding="utf-8"?>
<!-- Generator: Adobe Illustrator 19.1.0, SVG Export Plug-In . SVG Version: 6.00 Build 0)  -->
<svg version="1.1" xmlns="http://www.w3.org/2000/svg" xmlns:xlink="http://www.w3.org/1999/xlink" x="0px" y="0px"
	 viewBox="0 0 462 451.7" style="enable-background:new 0 0 462 451.7;" xml:space="preserve">
<style type="text/css">
	.st0{fill:#1A1A1A;}
	.st1{fill:#79C0F2;}
	.st2{fill:#0071BC;}
	.st3{fill:#29ABE2;}
	.st4{fill:#434C59;}
	.st5{fill:#F2F6F7;}
	.st6{fill:#79C0F2;stroke:#FFFFFF;stroke-width:4;stroke-miterlimit:10;}
	.st7{fill:#FFFFFF;}
	.st8{fill:#3C5A99;}
	.st9{fill:#6AB6EA;}
	.st10{fill:#002F4B;}
	.st11{fill:#495E72;}
	.st12{fill:#79C0F2;stroke:#FFFFFF;stroke-width:5;stroke-miterlimit:10;}
	.st13{fill:#79C0F2;stroke:#FFFFFF;stroke-width:3;stroke-miterlimit:10;}
	.st14{fill:none;stroke:#FFFFFF;stroke-width:4;stroke-linecap:round;stroke-miterlimit:10;}
</style>
<g id="Layer_1">
	<path class="st1" d="M279.1,313.2c-0.1,0-0.1,0-0.1,0c0,0,0,0,0,0l-55.1,0c-15.4,0-28.2-12.9-28.2-28.2l0-19
		c0-15.4,13-27.8,28.3-27.8l55.2,0.5c2.8-0.2,6.1-1.6,8.6-4.1c4.9-4.9,4.7-13.1-0.2-18c-2.5-2.5-6-3.8-9.3-3.8l-54.7-0.1
		c-15.4,0-27.9-12.9-27.9-28.2l0-17.7c0-15.4,12.8-28.2,28.2-28.2l54.4,0c3.3,0.1,6.6-1.2,9.1-3.7c4.9-4.9,5.3-12.8,0.4-17.7
		c-2.5-2.5-5.7-3.7-8.7-3.7v0l-54.8,0c-29.5,0-53.5,23.8-53.5,53.3l-0.1,18c0,15.7,9.7,31.7,24.1,40.1
		c-14.4,8.5-24.2,24.4-24.2,40.1l0,20c0,29.5,23.9,53.3,53.3,53.3l55.1,0c0,0,0,0,0-0.1c0,0,0.1,0,0.1,0c6.9,0,12.5-5.6,12.5-12.5
		C291.6,318.8,286,313.2,279.1,313.2z"/>
</g>
<g id="Layer_2">
</g>
</svg>
