<?xml version="1.0" encoding="utf-8"?>
<!-- Generator: Adobe Illustrator 19.1.0, SVG Export Plug-In . SVG Version: 6.00 Build 0)  -->
<svg version="1.1" xmlns="http://www.w3.org/2000/svg" xmlns:xlink="http://www.w3.org/1999/xlink" x="0px" y="0px"
	 viewBox="0 0 1280 800" style="enable-background:new 0 0 1280 800;" xml:space="preserve">
<style type="text/css">
	.st0{fill:#1A1A1A;}
	.st1{fill:#79C0F2;}
	.st2{fill:#0071BC;}
	.st3{fill:#29ABE2;}
	.st4{fill:#434C59;}
	.st5{fill:#F2F6F7;}
	.st6{fill:#79C0F2;stroke:#FFFFFF;stroke-width:4;stroke-miterlimit:10;}
	.st7{fill:#FFFFFF;}
	.st8{fill:#3C5A99;}
	.st9{fill:#6AB6EA;}
	.st10{fill:#002F4B;}
	.st11{fill:#495E72;}
	.st12{fill:#79C0F2;stroke:#FFFFFF;stroke-width:5;stroke-miterlimit:10;}
	.st13{fill:#79C0F2;stroke:#FFFFFF;stroke-width:3;stroke-miterlimit:10;}
	.st14{fill:none;stroke:#FFFFFF;stroke-width:4;stroke-linecap:round;stroke-miterlimit:10;}
</style>
<g id="Layer_1">
	<path id="Blue_1_" class="st8" d="M771.6,347c7.9,0,14.4-6.4,14.4-14.2V103.5c0-7.9-6.5-14.5-14.4-14.5H542.3
		c-7.9,0-14.3,6.6-14.3,14.5v229.3c0,7.9,6.5,14.2,14.3,14.2H771.6z"/>
	<path id="f_2_" class="st7" d="M706,347V247h33.4l5-39H706v-24.5c0-11.3,3.2-18.9,19.3-18.9l20.7,0v-34.8c-4-0.5-15.8-1.5-30-1.5
		c-29.7,0-50,18.1-50,51.4V208h-34v39h34v100H706z"/>
	<path id="f_1_" class="st8" d="M948,327V227h33.4l5-39H948v-24.5c0-11.3,3.2-18.9,19.3-18.9l20.7,0v-34.8c-4-0.5-15.8-1.5-30-1.5
		c-29.7,0-50,18.1-50,51.4V188h-34v39h34v100H948z"/>
</g>
<g id="Layer_2">
</g>
</svg>
