<?xml version="1.0" encoding="utf-8"?>
<!-- Generator: Adobe Illustrator 19.1.0, SVG Export Plug-In . SVG Version: 6.00 Build 0)  -->
<svg version="1.1" xmlns="http://www.w3.org/2000/svg" xmlns:xlink="http://www.w3.org/1999/xlink" x="0px" y="0px"
	 viewBox="0 0 327 203" style="enable-background:new 0 0 327 203;" xml:space="preserve">
<style type="text/css">
	.st0{fill:#1A1A1A;}
	.st1{fill:#79C0F2;}
	.st2{fill:#0071BC;}
	.st3{fill:#29ABE2;}
	.st4{fill:#434C59;}
	.st5{fill:#F2F6F7;}
	.st6{fill:#79C0F2;stroke:#FFFFFF;stroke-width:4;stroke-miterlimit:10;}
	.st7{fill:#FFFFFF;}
	.st8{fill:#3C5A99;}
	.st9{fill:#6AB6EA;}
	.st10{fill:#002F4B;}
	.st11{fill:#495E72;}
	.st12{fill:#79C0F2;stroke:#FFFFFF;stroke-width:5;stroke-miterlimit:10;}
	.st13{fill:#79C0F2;stroke:#FFFFFF;stroke-width:3;stroke-miterlimit:10;}
	.st14{fill:none;stroke:#FFFFFF;stroke-width:4;stroke-linecap:round;stroke-miterlimit:10;}
</style>
<g id="Layer_1">
	<path class="st1" d="M191.7,65h-56.4c-8.1,0-14.3,6.8-14.3,15v33.9c0,8.1,6.2,15.2,14.3,15.2h15.4l6.8,6.8c2.8,2.9,7.2,3.1,10,0.2
		l6.8-7h17.4c8.1,0,14.3-7,14.3-15.2V80C206,71.8,199.8,65,191.7,65z M163.5,78.2c4.5,0,8.1,3.6,8.1,8.1c0,4.5-3.7,8.1-8.1,8.1
		c-4.5,0-8.1-3.6-8.1-8.1C155.4,81.8,159,78.2,163.5,78.2z M163.5,114.8c-3.6,0-7.1-0.3-9.6-0.9c-1.3-0.3-5.2-1.1-5.2-3.6
		c0-4.3,0.9-7.4,2.8-9.2c2.6-2.6,6.6-2.6,10.9-2.6c0.7,0,1.5,0,2.3,0c4.3,0,8.3,0,10.9,2.6c1.9,1.9,2.8,4.9,2.8,9.2
		C178.3,114.4,168,114.8,163.5,114.8z"/>
</g>
<g id="Layer_2">
</g>
</svg>
