<?xml version="1.0" encoding="utf-8"?>
<!-- Generator: Adobe Illustrator 19.1.0, SVG Export Plug-In . SVG Version: 6.00 Build 0)  -->
<svg version="1.1" xmlns="http://www.w3.org/2000/svg" xmlns:xlink="http://www.w3.org/1999/xlink" x="0px" y="0px"
	 viewBox="0 0 327 203" style="enable-background:new 0 0 327 203;" xml:space="preserve">
<style type="text/css">
	.st0{fill:#1A1A1A;}
	.st1{fill:#79C0F2;}
	.st2{fill:#0071BC;}
	.st3{fill:#29ABE2;}
	.st4{fill:#434C59;}
	.st5{fill:#F2F6F7;}
	.st6{fill:#79C0F2;stroke:#FFFFFF;stroke-width:4;stroke-miterlimit:10;}
	.st7{fill:#FFFFFF;}
	.st8{fill:#3C5A99;}
	.st9{fill:#6AB6EA;}
	.st10{fill:#002F4B;}
	.st11{fill:#495E72;}
	.st12{fill:#79C0F2;stroke:#FFFFFF;stroke-width:5;stroke-miterlimit:10;}
	.st13{fill:#79C0F2;stroke:#FFFFFF;stroke-width:3;stroke-miterlimit:10;}
	.st14{fill:none;stroke:#FFFFFF;stroke-width:4;stroke-linecap:round;stroke-miterlimit:10;}
</style>
<g id="Layer_1">
	<path class="st1" d="M191.7,65h-56.4c-8.1,0-14.3,6.8-14.3,15v33.9c0,8.1,6.2,15.2,14.3,15.2h15.4l6.8,6.8c2.8,2.9,7.2,3.1,10,0.2
		l6.8-7h17.4c8.1,0,14.3-7,14.3-15.2V80C206,71.8,199.8,65,191.7,65z"/>
	<g>
		<path class="st7" d="M175.5,101.1c-2.6-2.6-6.6-2.6-10.9-2.6c-0.7,0-1.5,0-2.3,0c-4.3,0-8.3,0-10.9,2.6c-1.9,1.9-2.8,4.9-2.8,9.2
			c0,2.5,3.9,3.4,5.2,3.6c2.6,0.5,6,0.9,9.6,0.9c4.5,0,14.8-0.4,14.8-4.5C178.3,106,177.4,103,175.5,101.1z"/>
		<path class="st7" d="M163.5,94.4c4.5,0,8.1-3.6,8.1-8.1c0-4.5-3.7-8.1-8.1-8.1c-4.5,0-8.1,3.6-8.1,8.1
			C155.4,90.8,159,94.4,163.5,94.4z"/>
	</g>
</g>
<g id="Layer_2">
</g>
</svg>
