<?xml version="1.0" encoding="utf-8"?>
<!-- Generator: Adobe Illustrator 19.1.0, SVG Export Plug-In . SVG Version: 6.00 Build 0)  -->
<svg version="1.1" xmlns="http://www.w3.org/2000/svg" xmlns:xlink="http://www.w3.org/1999/xlink" x="0px" y="0px"
	 viewBox="0 0 118.8 106" style="enable-background:new 0 0 118.8 106;" xml:space="preserve">
<style type="text/css">
	.st0{fill:#1A1A1A;}
	.st1{fill:#79C0F2;}
	.st2{fill:#434C59;}
	.st3{fill:#F2F6F7;}
	.st4{fill:#FFFFFF;}
	.st5{fill:#3C5A99;}
	.st6{fill:#6AB6EA;}
	.st7{fill:#002F4B;}
</style>
<g id="Layer_1">
	<g>
		<path class="st3" d="M75.8,65.1c-6.5-6.5-16.6-6.5-27.3-6.4c-1.9,0-3.8,0-5.6,0c-10.7,0-20.8-0.1-27.3,6.4
			c-4.7,4.7-6.9,12.2-6.9,23.1c0,6.3,9.8,8.4,13,9.1c6.4,1.4,14.9,2.1,24.1,2.1c11.2,0,37.1-1.1,37.1-11.3
			C82.7,77.3,80.4,69.7,75.8,65.1z"/>
		<path class="st3" d="M45.6,48.4C56.9,48.4,66,39.3,66,28c0-11.2-9.1-20.4-20.4-20.4c-11.2,0-20.4,9.1-20.4,20.4
			C25.2,39.3,34.4,48.4,45.6,48.4z"/>
		<path class="st3" d="M108,38H94V25c-2,0-6,0-10,0v13H72c0,2,0,7,0,10h12v14c6,0,9,0,10,0V48h14C108,45,108,40,108,38z"/>
	</g>
	<path class="st3" d="M75.7,65c-6.5-6.5-16.6-6.5-27.3-6.4c-1.9,0-3.8,0-5.6,0c-10.7,0-20.8-0.1-27.3,6.4c-4.7,4.6-6.9,12.2-6.9,23
		c0,6.3,9.8,8.4,13,9.1c6.4,1.4,14.9,2.1,24,2.1c11.1,0,37-1.1,37-11.2C82.6,77.1,80.3,69.6,75.7,65z"/>
	<path class="st3" d="M45.6,48.3c11.2,0,20.3-9.1,20.3-20.3c0-11.2-9.1-20.3-20.3-20.3c-11.2,0-20.4,9.1-20.4,20.3
		C25.2,39.2,34.4,48.3,45.6,48.3z"/>
</g>
<g id="Layer_2">
</g>
</svg>
