<?xml version="1.0" encoding="utf-8"?>
<!-- Generator: Adobe Illustrator 19.1.0, SVG Export Plug-In . SVG Version: 6.00 Build 0)  -->
<svg version="1.1" xmlns="http://www.w3.org/2000/svg" xmlns:xlink="http://www.w3.org/1999/xlink" x="0px" y="0px"
	 viewBox="0 0 118.8 106" style="enable-background:new 0 0 118.8 106;" xml:space="preserve">
<style type="text/css">
	.st0{fill:#1A1A1A;}
	.st1{fill:#79C0F2;}
	.st2{fill:#0071BC;}
	.st3{fill:#29ABE2;}
	.st4{fill:#434C59;}
	.st5{fill:#F2F6F7;}
	.st6{fill:#79C0F2;stroke:#FFFFFF;stroke-width:4;stroke-miterlimit:10;}
	.st7{fill:#FFFFFF;}
	.st8{fill:#3C5A99;}
	.st9{fill:#6AB6EA;}
	.st10{fill:#002F4B;}
	.st11{fill:#495E72;}
	.st12{fill:#79C0F2;stroke:#FFFFFF;stroke-width:5;stroke-miterlimit:10;}
	.st13{fill:#79C0F2;stroke:#FFFFFF;stroke-width:3;stroke-miterlimit:10;}
	.st14{fill:none;stroke:#FFFFFF;stroke-width:4;stroke-linecap:round;stroke-miterlimit:10;}
</style>
<g id="Layer_1">
</g>
<g id="Layer_2">
	<path class="st11" d="M92.9,71.2c-3.7,0-7,1.3-9.6,3.5L55.9,58.7c0.8-2.3,1.2-4.7,1.2-7.3c0-2.2-0.3-4.3-0.9-6.4l26.7-14.2
		c2.6,2.4,6.1,3.9,10,3.9c8.1,0,14.7-6.6,14.7-14.7S101,5.4,92.9,5.4s-14.7,6.6-14.7,14.7c0,0.8,0.1,1.6,0.2,2.3L51.6,36.6
		c-4.2-5-10.5-8.2-17.6-8.2c-12.7,0-23,10.3-23,23s10.3,23,23,23c6.7,0,12.8-2.9,17-7.5L78.4,83c-0.2,0.9-0.3,1.9-0.3,2.9
		c0,8.1,6.6,14.7,14.7,14.7s14.7-6.6,14.7-14.7S101,71.2,92.9,71.2z"/>
</g>
</svg>
